<svg width="1138" height="131" viewBox="0 0 1138 131" fill="none" xmlns="http://www.w3.org/2000/svg">
<mask id="mask0_2_4" style="mask-type:alpha" maskUnits="userSpaceOnUse" x="0" y="0" width="1138" height="131">
<path d="M106.5 35.5C59 25 41.7245 45.8014 0.5 81V131H1137.5V46C1137.5 46 1119 39.9999 1102 68.5C1085 97 1085 110.5 1069 110.5C1053 110.5 1017 81 1017 81C1017 81 1005.5 62 964.5 68.5C923.5 74.9999 914.056 124.106 868 110.5C810.839 75.489 737.5 46 716 35.5C694.5 25 628.5 2.99999 597 0.499994C565.5 -2.00001 490 8.49997 490 8.49997C442 7.49997 253 81 215.5 81C178 81 154 46 106.5 35.5Z" fill="#C4C4C4"/>
</mask>
<g mask="url(#mask0_2_4)">
<rect x="-1" y="-208" width="1140" height="342" fill="url(#paint0_linear_2_4)"/>
</g>
<defs>
<linearGradient id="paint0_linear_2_4" x1="569" y1="-208" x2="569" y2="134" gradientUnits="userSpaceOnUse">
<stop stop-color="#9C7BC7"/>
<stop offset="0.479167" stop-color="#C08EE8"/>
<stop offset="0.9999" stop-color="#F5A8E4"/>
<stop offset="1" stop-color="#D2C8EB" stop-opacity="0"/>
</linearGradient>
</defs>
</svg>
