<svg width="1136" height="294" viewBox="0 0 1136 294" fill="none" xmlns="http://www.w3.org/2000/svg">
<mask id="mask0_0_1" style="mask-type:alpha" maskUnits="userSpaceOnUse" x="0" y="0" width="1136" height="294">
<path d="M184 216.5C105.98 222.582 65.6188 237.77 0 287V0H1135.5V216.5L1117.5 222.5C1117.5 222.5 1087.5 234.5 1057 249.5C1026.5 264.5 997 279 997 279C997 279 947 306.5 920 287C893 267.5 863 249.5 848.5 240.5C834 231.5 757.5 204 731.5 202C705.5 200 636 202 597.5 222.5C559 243 532.5 265.5 464.5 264.5C396.5 263.5 318.013 218.529 184 216.5Z" fill="#C4C4C4"/>
</mask>
<g mask="url(#mask0_0_1)">
<rect x="-3" y="-0.5" width="1140" height="342" fill="url(#paint0_linear_0_1)"/>
<path d="M303.561 134.5H295.961C293.668 134.5 292.521 133.38 292.521 131.14V110.1C292.521 107.007 291.774 104.607 290.281 102.9C288.788 101.193 286.601 100.34 283.721 100.34C281.534 100.34 279.854 100.687 278.681 101.38C277.561 102.02 276.708 102.607 276.121 103.14C275.534 103.62 275.054 104.1 274.681 104.58C274.041 105.433 273.508 106.313 273.081 107.22V129.14H277.321C278.014 129.14 278.361 129.46 278.361 130.1V133.54C278.361 134.18 278.014 134.5 277.321 134.5H262.041C261.348 134.5 261.001 134.18 261.001 133.54V130.1C261.001 129.46 261.348 129.14 262.041 129.14H266.441V82.42H262.041C261.348 82.42 261.001 82.1 261.001 81.46V78.02C261.001 77.38 261.348 77.06 262.041 77.06H272.121C272.761 77.06 273.081 77.38 273.081 78.02V95.86C273.081 97.62 272.974 99.2467 272.761 100.74H272.921C275.534 96.6333 279.694 94.58 285.401 94.58C289.668 94.58 293.001 95.8333 295.401 98.34C297.801 100.847 299.028 104.233 299.081 108.5V129.14H303.561C304.254 129.14 304.601 129.46 304.601 130.1V133.54C304.601 134.18 304.254 134.5 303.561 134.5ZM344.979 115.62H316.179C316.392 120.047 317.779 123.46 320.339 125.86C322.952 128.26 325.886 129.46 329.139 129.46C332.392 129.46 335.166 128.767 337.459 127.38C339.806 125.993 341.379 124.633 342.179 123.3C342.606 122.767 343.086 122.687 343.619 123.06L345.779 125.22C346.099 125.54 346.259 125.833 346.259 126.1C346.259 126.313 346.126 126.607 345.859 126.98C345.646 127.353 345.166 127.94 344.419 128.74C343.672 129.54 342.606 130.447 341.219 131.46C339.886 132.473 338.126 133.327 335.939 134.02C333.806 134.713 331.512 135.06 329.059 135.06C323.459 135.06 318.766 133.22 314.979 129.54C311.246 125.86 309.379 120.927 309.379 114.74C309.379 108.5 311.246 103.593 314.979 100.02C318.712 96.3933 323.272 94.58 328.659 94.58C334.099 94.58 338.366 96.34 341.459 99.86C344.552 103.327 346.099 108.02 346.099 113.94C346.099 114.153 346.099 114.367 346.099 114.58C346.099 115.273 345.726 115.62 344.979 115.62ZM339.459 110.74C339.299 107.433 338.259 104.793 336.339 102.82C334.419 100.847 331.859 99.86 328.659 99.86C325.459 99.86 322.712 100.767 320.419 102.58C318.126 104.393 316.766 107.113 316.339 110.74H339.459ZM369.738 133.62C368.884 133.62 368.191 132.953 367.658 131.62L355.418 100.5H351.018C350.378 100.5 350.058 100.18 350.058 99.54V96.1C350.058 95.46 350.378 95.14 351.018 95.14H365.498C366.191 95.14 366.538 95.46 366.538 96.1V99.54C366.538 100.18 366.191 100.5 365.498 100.5H362.218L372.538 127.62H372.698L382.298 100.5H378.698C378.058 100.5 377.738 100.18 377.738 99.54V96.1C377.738 95.46 378.058 95.14 378.698 95.14H393.578C394.218 95.14 394.538 95.46 394.538 96.1V99.54C394.538 100.18 394.218 100.5 393.578 100.5H389.098L374.858 139.62C373.098 144.367 371.258 147.807 369.338 149.94C367.471 152.127 364.884 153.22 361.578 153.22C358.324 153.22 355.524 152.18 353.178 150.1C352.644 149.567 352.564 149.087 352.938 148.66L354.938 146.1C355.418 145.727 355.898 145.7 356.378 146.02C357.658 147.033 359.178 147.54 360.938 147.54C362.698 147.54 364.138 146.927 365.258 145.7C366.431 144.527 367.551 142.473 368.618 139.54L370.778 133.62H369.738ZM397.398 141.7V140.34C397.398 140.02 397.692 139.86 398.278 139.86C398.918 139.86 399.558 139.487 400.198 138.74C400.892 138.047 401.238 137.007 401.238 135.62L401.078 134.66C400.758 134.927 400.172 135.06 399.318 135.06C398.518 135.06 397.772 134.74 397.078 134.1C396.385 133.407 396.038 132.527 396.038 131.46C396.038 130.34 396.412 129.433 397.158 128.74C397.905 127.993 398.892 127.62 400.118 127.62C401.345 127.62 402.332 128.127 403.078 129.14C403.878 130.153 404.278 131.887 404.278 134.34C404.278 136.74 403.692 138.633 402.518 140.02C401.345 141.407 399.825 142.1 397.958 142.1C397.585 142.1 397.398 141.967 397.398 141.7ZM452.571 134.5H437.291C436.598 134.5 436.251 134.18 436.251 133.54V130.1C436.251 129.46 436.598 129.14 437.291 129.14H441.691V100.5H437.291C436.598 100.5 436.251 100.18 436.251 99.54V96.1C436.251 95.46 436.598 95.14 437.291 95.14H447.371C448.011 95.14 448.331 95.46 448.331 96.1V129.14H452.571C453.264 129.14 453.611 129.46 453.611 130.1V133.54C453.611 134.18 453.264 134.5 452.571 134.5ZM448.011 83.3C448.918 84.2067 449.371 85.2733 449.371 86.5C449.371 87.7267 448.918 88.7667 448.011 89.62C447.158 90.4733 446.118 90.9 444.891 90.9C443.664 90.9 442.598 90.4733 441.691 89.62C440.838 88.7667 440.411 87.7267 440.411 86.5C440.411 85.2733 440.838 84.2067 441.691 83.3C442.598 82.3933 443.664 81.94 444.891 81.94C446.118 81.94 447.158 82.3933 448.011 83.3ZM461.848 89.14V87.78C461.848 87.46 462.142 87.3 462.728 87.3C463.315 87.3 463.928 86.9533 464.568 86.26C465.262 85.5133 465.608 84.4467 465.608 83.06L465.448 82.1C465.182 82.3667 464.622 82.5 463.768 82.5C462.915 82.5 462.142 82.1533 461.448 81.46C460.808 80.7667 460.488 79.8867 460.488 78.82C460.488 77.7533 460.835 76.8733 461.528 76.18C462.275 75.4333 463.262 75.06 464.488 75.06C465.715 75.06 466.728 75.5667 467.528 76.58C468.328 77.5933 468.728 79.3267 468.728 81.78C468.728 84.18 468.115 86.1 466.888 87.54C465.715 88.9267 464.195 89.62 462.328 89.62C462.008 89.62 461.848 89.46 461.848 89.14ZM542.945 134.5H535.345C534.119 134.5 533.212 134.26 532.625 133.78C532.092 133.247 531.825 132.367 531.825 131.14V110.1C531.825 107.007 531.079 104.607 529.585 102.9C528.145 101.193 525.985 100.34 523.105 100.34C518.892 100.34 515.585 102.18 513.185 105.86C513.505 106.82 513.665 107.887 513.665 109.06V129.14H518.145C518.785 129.14 519.105 129.46 519.105 130.1V133.54C519.105 134.18 518.785 134.5 518.145 134.5H502.865C502.172 134.5 501.825 134.18 501.825 133.54V130.1C501.825 129.46 502.172 129.14 502.865 129.14H507.105V110.1C507.105 107.007 506.359 104.607 504.865 102.9C503.372 101.193 501.185 100.34 498.305 100.34C496.119 100.34 494.439 100.687 493.265 101.38C492.145 102.02 491.292 102.607 490.705 103.14C490.119 103.62 489.639 104.1 489.265 104.58C488.625 105.433 488.092 106.313 487.665 107.22V129.14H491.585C492.225 129.14 492.545 129.46 492.545 130.1V133.54C492.545 134.18 492.225 134.5 491.585 134.5H476.625C475.932 134.5 475.585 134.18 475.585 133.54V130.1C475.585 129.46 475.932 129.14 476.625 129.14H481.025V100.5H476.625C475.932 100.5 475.585 100.18 475.585 99.54V96.1C475.585 95.46 475.932 95.14 476.625 95.14H484.465C485.372 95.14 486.012 95.3267 486.385 95.7C486.812 96.02 487.025 96.6333 487.025 97.54L486.865 101.54H487.105C489.879 96.9 494.172 94.58 499.985 94.58C505.852 94.58 509.852 96.7933 511.985 101.22C515.025 96.7933 519.319 94.58 524.865 94.58C529.132 94.58 532.439 95.8333 534.785 98.34C537.185 100.847 538.385 104.233 538.385 108.5L538.465 129.14H542.945C543.639 129.14 543.985 129.46 543.985 130.1V133.54C543.985 134.18 543.639 134.5 542.945 134.5ZM635.117 134.5H617.037C616.397 134.5 616.077 134.18 616.077 133.54V129.46C616.077 128.82 616.397 128.5 617.037 128.5H622.637L617.437 114.66H595.117L589.917 128.5H595.517C596.157 128.5 596.477 128.82 596.477 129.46V133.54C596.477 134.18 596.157 134.5 595.517 134.5H577.517C576.877 134.5 576.557 134.18 576.557 133.54V129.46C576.557 128.82 576.877 128.5 577.517 128.5H582.877L600.077 83.06H595.757C595.063 83.06 594.717 82.74 594.717 82.1V78.02C594.717 77.38 595.063 77.06 595.757 77.06H606.637C607.917 77.06 608.877 77.3267 609.517 77.86C610.21 78.3933 610.797 79.2733 611.277 80.5L629.677 128.5H635.117C635.757 128.5 636.077 128.82 636.077 129.46V133.54C636.077 134.18 635.757 134.5 635.117 134.5ZM615.277 109.14L606.397 85.38H606.157L597.197 109.14H615.277ZM652.918 152.5H636.838C636.144 152.5 635.798 152.18 635.798 151.54V148.1C635.798 147.46 636.144 147.14 636.838 147.14H641.318V100.5H636.998C636.304 100.5 635.958 100.18 635.958 99.54V96.1C635.958 95.46 636.304 95.14 636.998 95.14H646.358C647.051 95.14 647.398 95.46 647.398 96.1L647.318 102.42H647.398C648.411 100.233 650.038 98.3933 652.278 96.9C654.571 95.3533 657.371 94.58 660.678 94.58C666.064 94.58 670.411 96.42 673.718 100.1C677.024 103.727 678.678 108.58 678.678 114.66C678.678 120.687 677.051 125.593 673.798 129.38C670.544 133.167 666.198 135.06 660.758 135.06C657.451 135.06 654.678 134.313 652.438 132.82C650.251 131.273 648.678 129.407 647.718 127.22H647.478C647.638 128.927 647.718 130.153 647.718 130.9V147.14H652.918C653.611 147.14 653.958 147.46 653.958 148.1V151.54C653.958 152.18 653.611 152.5 652.918 152.5ZM647.558 114.98C647.558 119.62 648.758 123.193 651.158 125.7C653.611 128.207 656.544 129.46 659.958 129.46C663.424 129.46 666.304 128.127 668.598 125.46C670.944 122.74 672.118 119.193 672.118 114.82C672.118 110.393 670.944 106.847 668.598 104.18C666.304 101.513 663.424 100.18 659.958 100.18C656.491 100.18 653.558 101.487 651.158 104.1C648.758 106.713 647.558 110.34 647.558 114.98ZM724.393 134.5H717.433C715.14 134.5 713.993 133.38 713.993 131.14V127.06H713.833C709.94 132.447 704.74 135.14 698.233 135.14C694.393 135.14 691.247 134.153 688.793 132.18C686.34 130.153 685.113 127.433 685.113 124.02C685.113 119.647 687.007 116.447 690.793 114.42C694.633 112.34 699.887 111.3 706.553 111.3H713.273V110.34C713.273 103.673 709.807 100.34 702.873 100.34C699.62 100.34 697.273 100.66 695.833 101.3C694.393 101.887 693.353 102.367 692.713 102.74C692.127 103.113 691.673 103.407 691.353 103.62C690.553 104.26 689.967 104.313 689.593 103.78L687.353 100.98C686.98 100.553 687.033 100.127 687.513 99.7C688.42 98.5267 690.287 97.38 693.113 96.26C695.94 95.14 699.273 94.58 703.113 94.58C714.313 94.58 719.913 99.9133 719.913 110.58V129.14H724.393C725.033 129.14 725.353 129.46 725.353 130.1V133.54C725.353 134.18 725.033 134.5 724.393 134.5ZM713.273 116.1H706.953C703.86 116.1 701.3 116.26 699.273 116.58C697.247 116.9 695.513 117.593 694.073 118.66C692.687 119.727 691.993 121.193 691.993 123.06C691.993 124.927 692.74 126.473 694.233 127.7C695.78 128.873 697.78 129.46 700.233 129.46C705.407 129.46 709.753 127.167 713.273 122.58V116.1ZM748.483 134.5H733.203C732.51 134.5 732.163 134.18 732.163 133.54V130.1C732.163 129.46 732.51 129.14 733.203 129.14H737.603V100.5H733.203C732.51 100.5 732.163 100.18 732.163 99.54V96.1C732.163 95.46 732.51 95.14 733.203 95.14H742.563C743.257 95.14 743.603 95.46 743.603 96.1V106.1H743.843C744.003 105.247 744.563 104.073 745.523 102.58C746.483 101.087 747.523 99.86 748.643 98.9C749.817 97.8867 751.47 96.98 753.603 96.18C755.79 95.38 758.243 94.98 760.963 94.98C761.657 94.98 762.003 95.3267 762.003 96.02V100.26C762.003 100.953 761.657 101.3 760.963 101.3H759.283C754.697 101.3 751.043 102.767 748.323 105.7C745.603 108.633 744.243 111.967 744.243 115.7V129.14H748.483C749.177 129.14 749.523 129.46 749.523 130.1V133.54C749.523 134.18 749.177 134.5 748.483 134.5ZM809.195 134.5H801.595C799.302 134.5 798.155 133.38 798.155 131.14V110.1C798.155 107.007 797.409 104.607 795.915 102.9C794.422 101.193 792.235 100.34 789.355 100.34C785.249 100.34 782.049 102.02 779.755 105.38C779.489 105.7 779.142 106.287 778.715 107.14V129.14H782.955C783.649 129.14 783.995 129.46 783.995 130.1V133.54C783.995 134.18 783.649 134.5 782.955 134.5H767.675C766.982 134.5 766.635 134.18 766.635 133.54V130.1C766.635 129.46 766.982 129.14 767.675 129.14H772.075V100.5H767.675C766.982 100.5 766.635 100.18 766.635 99.54V96.1C766.635 95.46 766.982 95.14 767.675 95.14H777.035C777.729 95.14 778.075 95.46 778.075 96.1L777.915 101.54H778.155C780.929 96.9 785.222 94.58 791.035 94.58C795.302 94.58 798.635 95.8333 801.035 98.34C803.435 100.847 804.662 104.233 804.715 108.5V129.14H809.195C809.889 129.14 810.235 129.46 810.235 130.1V133.54C810.235 134.18 809.889 134.5 809.195 134.5ZM855.622 134.5H848.662C846.368 134.5 845.222 133.38 845.222 131.14V127.06H845.062C841.168 132.447 835.968 135.14 829.462 135.14C825.622 135.14 822.475 134.153 820.022 132.18C817.568 130.153 816.342 127.433 816.342 124.02C816.342 119.647 818.235 116.447 822.022 114.42C825.862 112.34 831.115 111.3 837.782 111.3H844.502V110.34C844.502 103.673 841.035 100.34 834.102 100.34C830.848 100.34 828.502 100.66 827.062 101.3C825.622 101.887 824.582 102.367 823.942 102.74C823.355 103.113 822.902 103.407 822.582 103.62C821.782 104.26 821.195 104.313 820.822 103.78L818.582 100.98C818.208 100.553 818.262 100.127 818.742 99.7C819.648 98.5267 821.515 97.38 824.342 96.26C827.168 95.14 830.502 94.58 834.342 94.58C845.542 94.58 851.142 99.9133 851.142 110.58V129.14H855.622C856.262 129.14 856.582 129.46 856.582 130.1V133.54C856.582 134.18 856.262 134.5 855.622 134.5ZM844.502 116.1H838.182C835.088 116.1 832.528 116.26 830.502 116.58C828.475 116.9 826.742 117.593 825.302 118.66C823.915 119.727 823.222 121.193 823.222 123.06C823.222 124.927 823.968 126.473 825.462 127.7C827.008 128.873 829.008 129.46 831.462 129.46C836.635 129.46 840.982 127.167 844.502 122.58V116.1ZM870.188 122.66H865.388C864.748 122.66 864.428 122.34 864.428 121.7V74.66C864.428 74.02 864.748 73.7 865.388 73.7H870.188C870.828 73.7 871.148 74.02 871.148 74.66V121.7C871.148 122.34 870.828 122.66 870.188 122.66ZM870.828 131.22C871.628 132.02 872.028 133.007 872.028 134.18C872.028 135.353 871.628 136.34 870.828 137.14C870.028 137.993 869.014 138.42 867.788 138.42C866.614 138.42 865.601 137.993 864.748 137.14C863.948 136.34 863.548 135.353 863.548 134.18C863.548 133.007 863.948 132.02 864.748 131.22C865.601 130.367 866.614 129.94 867.788 129.94C869.014 129.94 870.028 130.367 870.828 131.22Z" fill="black"/>
</g>
<defs>
<linearGradient id="paint0_linear_0_1" x1="567" y1="-0.5" x2="567" y2="237" gradientUnits="userSpaceOnUse">
<stop stop-color="#E76238"/>
<stop offset="0.229167" stop-color="#E29888"/>
<stop offset="0.708333" stop-color="#E69A54"/>
<stop offset="0.955" stop-color="#E09595"/>
</linearGradient>
</defs>
</svg>
