<svg width="1136" height="295" viewBox="0 0 1136 295" fill="none" xmlns="http://www.w3.org/2000/svg">
<mask id="mask0_0_1" style="mask-type:alpha" maskUnits="userSpaceOnUse" x="0" y="0" width="1136" height="295">
<path d="M184 217C105.98 223.082 65.6188 238.27 0 287.5V0.5H1135.5V217L1117.5 223C1117.5 223 1087.5 235 1057 250C1026.5 265 997 279.5 997 279.5C997 279.5 947 307 920 287.5C893 268 863 250 848.5 241C834 232 757.5 204.5 731.5 202.5C705.5 200.5 636 202.5 597.5 223C559 243.5 532.5 266 464.5 265C396.5 264 318.013 219.029 184 217Z" fill="#C4C4C4"/>
</mask>
<g mask="url(#mask0_0_1)">
<rect x="-3" width="1140" height="342" fill="url(#paint0_linear_0_1)"/>
<path d="M303.561 135H295.961C293.668 135 292.521 133.88 292.521 131.64V110.6C292.521 107.507 291.774 105.107 290.281 103.4C288.788 101.693 286.601 100.84 283.721 100.84C281.534 100.84 279.854 101.187 278.681 101.88C277.561 102.52 276.708 103.107 276.121 103.64C275.534 104.12 275.054 104.6 274.681 105.08C274.041 105.933 273.508 106.813 273.081 107.72V129.64H277.321C278.014 129.64 278.361 129.96 278.361 130.6V134.04C278.361 134.68 278.014 135 277.321 135H262.041C261.348 135 261.001 134.68 261.001 134.04V130.6C261.001 129.96 261.348 129.64 262.041 129.64H266.441V82.92H262.041C261.348 82.92 261.001 82.6 261.001 81.96V78.52C261.001 77.88 261.348 77.56 262.041 77.56H272.121C272.761 77.56 273.081 77.88 273.081 78.52V96.36C273.081 98.12 272.974 99.7467 272.761 101.24H272.921C275.534 97.1333 279.694 95.08 285.401 95.08C289.668 95.08 293.001 96.3333 295.401 98.84C297.801 101.347 299.028 104.733 299.081 109V129.64H303.561C304.254 129.64 304.601 129.96 304.601 130.6V134.04C304.601 134.68 304.254 135 303.561 135ZM344.979 116.12H316.179C316.392 120.547 317.779 123.96 320.339 126.36C322.952 128.76 325.886 129.96 329.139 129.96C332.392 129.96 335.166 129.267 337.459 127.88C339.806 126.493 341.379 125.133 342.179 123.8C342.606 123.267 343.086 123.187 343.619 123.56L345.779 125.72C346.099 126.04 346.259 126.333 346.259 126.6C346.259 126.813 346.126 127.107 345.859 127.48C345.646 127.853 345.166 128.44 344.419 129.24C343.672 130.04 342.606 130.947 341.219 131.96C339.886 132.973 338.126 133.827 335.939 134.52C333.806 135.213 331.512 135.56 329.059 135.56C323.459 135.56 318.766 133.72 314.979 130.04C311.246 126.36 309.379 121.427 309.379 115.24C309.379 109 311.246 104.093 314.979 100.52C318.712 96.8933 323.272 95.08 328.659 95.08C334.099 95.08 338.366 96.84 341.459 100.36C344.552 103.827 346.099 108.52 346.099 114.44C346.099 114.653 346.099 114.867 346.099 115.08C346.099 115.773 345.726 116.12 344.979 116.12ZM339.459 111.24C339.299 107.933 338.259 105.293 336.339 103.32C334.419 101.347 331.859 100.36 328.659 100.36C325.459 100.36 322.712 101.267 320.419 103.08C318.126 104.893 316.766 107.613 316.339 111.24H339.459ZM369.738 134.12C368.884 134.12 368.191 133.453 367.658 132.12L355.418 101H351.018C350.378 101 350.058 100.68 350.058 100.04V96.6C350.058 95.96 350.378 95.64 351.018 95.64H365.498C366.191 95.64 366.538 95.96 366.538 96.6V100.04C366.538 100.68 366.191 101 365.498 101H362.218L372.538 128.12H372.698L382.298 101H378.698C378.058 101 377.738 100.68 377.738 100.04V96.6C377.738 95.96 378.058 95.64 378.698 95.64H393.578C394.218 95.64 394.538 95.96 394.538 96.6V100.04C394.538 100.68 394.218 101 393.578 101H389.098L374.858 140.12C373.098 144.867 371.258 148.307 369.338 150.44C367.471 152.627 364.884 153.72 361.578 153.72C358.324 153.72 355.524 152.68 353.178 150.6C352.644 150.067 352.564 149.587 352.938 149.16L354.938 146.6C355.418 146.227 355.898 146.2 356.378 146.52C357.658 147.533 359.178 148.04 360.938 148.04C362.698 148.04 364.138 147.427 365.258 146.2C366.431 145.027 367.551 142.973 368.618 140.04L370.778 134.12H369.738ZM397.398 142.2V140.84C397.398 140.52 397.692 140.36 398.278 140.36C398.918 140.36 399.558 139.987 400.198 139.24C400.892 138.547 401.238 137.507 401.238 136.12L401.078 135.16C400.758 135.427 400.172 135.56 399.318 135.56C398.518 135.56 397.772 135.24 397.078 134.6C396.385 133.907 396.038 133.027 396.038 131.96C396.038 130.84 396.412 129.933 397.158 129.24C397.905 128.493 398.892 128.12 400.118 128.12C401.345 128.12 402.332 128.627 403.078 129.64C403.878 130.653 404.278 132.387 404.278 134.84C404.278 137.24 403.692 139.133 402.518 140.52C401.345 141.907 399.825 142.6 397.958 142.6C397.585 142.6 397.398 142.467 397.398 142.2ZM452.571 135H437.291C436.598 135 436.251 134.68 436.251 134.04V130.6C436.251 129.96 436.598 129.64 437.291 129.64H441.691V101H437.291C436.598 101 436.251 100.68 436.251 100.04V96.6C436.251 95.96 436.598 95.64 437.291 95.64H447.371C448.011 95.64 448.331 95.96 448.331 96.6V129.64H452.571C453.264 129.64 453.611 129.96 453.611 130.6V134.04C453.611 134.68 453.264 135 452.571 135ZM448.011 83.8C448.918 84.7067 449.371 85.7733 449.371 87C449.371 88.2267 448.918 89.2667 448.011 90.12C447.158 90.9733 446.118 91.4 444.891 91.4C443.664 91.4 442.598 90.9733 441.691 90.12C440.838 89.2667 440.411 88.2267 440.411 87C440.411 85.7733 440.838 84.7067 441.691 83.8C442.598 82.8933 443.664 82.44 444.891 82.44C446.118 82.44 447.158 82.8933 448.011 83.8ZM461.848 89.64V88.28C461.848 87.96 462.142 87.8 462.728 87.8C463.315 87.8 463.928 87.4533 464.568 86.76C465.262 86.0133 465.608 84.9467 465.608 83.56L465.448 82.6C465.182 82.8667 464.622 83 463.768 83C462.915 83 462.142 82.6533 461.448 81.96C460.808 81.2667 460.488 80.3867 460.488 79.32C460.488 78.2533 460.835 77.3733 461.528 76.68C462.275 75.9333 463.262 75.56 464.488 75.56C465.715 75.56 466.728 76.0667 467.528 77.08C468.328 78.0933 468.728 79.8267 468.728 82.28C468.728 84.68 468.115 86.6 466.888 88.04C465.715 89.4267 464.195 90.12 462.328 90.12C462.008 90.12 461.848 89.96 461.848 89.64ZM542.945 135H535.345C534.119 135 533.212 134.76 532.625 134.28C532.092 133.747 531.825 132.867 531.825 131.64V110.6C531.825 107.507 531.079 105.107 529.585 103.4C528.145 101.693 525.985 100.84 523.105 100.84C518.892 100.84 515.585 102.68 513.185 106.36C513.505 107.32 513.665 108.387 513.665 109.56V129.64H518.145C518.785 129.64 519.105 129.96 519.105 130.6V134.04C519.105 134.68 518.785 135 518.145 135H502.865C502.172 135 501.825 134.68 501.825 134.04V130.6C501.825 129.96 502.172 129.64 502.865 129.64H507.105V110.6C507.105 107.507 506.359 105.107 504.865 103.4C503.372 101.693 501.185 100.84 498.305 100.84C496.119 100.84 494.439 101.187 493.265 101.88C492.145 102.52 491.292 103.107 490.705 103.64C490.119 104.12 489.639 104.6 489.265 105.08C488.625 105.933 488.092 106.813 487.665 107.72V129.64H491.585C492.225 129.64 492.545 129.96 492.545 130.6V134.04C492.545 134.68 492.225 135 491.585 135H476.625C475.932 135 475.585 134.68 475.585 134.04V130.6C475.585 129.96 475.932 129.64 476.625 129.64H481.025V101H476.625C475.932 101 475.585 100.68 475.585 100.04V96.6C475.585 95.96 475.932 95.64 476.625 95.64H484.465C485.372 95.64 486.012 95.8267 486.385 96.2C486.812 96.52 487.025 97.1333 487.025 98.04L486.865 102.04H487.105C489.879 97.4 494.172 95.08 499.985 95.08C505.852 95.08 509.852 97.2933 511.985 101.72C515.025 97.2933 519.319 95.08 524.865 95.08C529.132 95.08 532.439 96.3333 534.785 98.84C537.185 101.347 538.385 104.733 538.385 109L538.465 129.64H542.945C543.639 129.64 543.985 129.96 543.985 130.6V134.04C543.985 134.68 543.639 135 542.945 135ZM635.117 135H617.037C616.397 135 616.077 134.68 616.077 134.04V129.96C616.077 129.32 616.397 129 617.037 129H622.637L617.437 115.16H595.117L589.917 129H595.517C596.157 129 596.477 129.32 596.477 129.96V134.04C596.477 134.68 596.157 135 595.517 135H577.517C576.877 135 576.557 134.68 576.557 134.04V129.96C576.557 129.32 576.877 129 577.517 129H582.877L600.077 83.56H595.757C595.063 83.56 594.717 83.24 594.717 82.6V78.52C594.717 77.88 595.063 77.56 595.757 77.56H606.637C607.917 77.56 608.877 77.8267 609.517 78.36C610.21 78.8933 610.797 79.7733 611.277 81L629.677 129H635.117C635.757 129 636.077 129.32 636.077 129.96V134.04C636.077 134.68 635.757 135 635.117 135ZM615.277 109.64L606.397 85.88H606.157L597.197 109.64H615.277ZM652.918 153H636.838C636.144 153 635.798 152.68 635.798 152.04V148.6C635.798 147.96 636.144 147.64 636.838 147.64H641.318V101H636.998C636.304 101 635.958 100.68 635.958 100.04V96.6C635.958 95.96 636.304 95.64 636.998 95.64H646.358C647.051 95.64 647.398 95.96 647.398 96.6L647.318 102.92H647.398C648.411 100.733 650.038 98.8933 652.278 97.4C654.571 95.8533 657.371 95.08 660.678 95.08C666.064 95.08 670.411 96.92 673.718 100.6C677.024 104.227 678.678 109.08 678.678 115.16C678.678 121.187 677.051 126.093 673.798 129.88C670.544 133.667 666.198 135.56 660.758 135.56C657.451 135.56 654.678 134.813 652.438 133.32C650.251 131.773 648.678 129.907 647.718 127.72H647.478C647.638 129.427 647.718 130.653 647.718 131.4V147.64H652.918C653.611 147.64 653.958 147.96 653.958 148.6V152.04C653.958 152.68 653.611 153 652.918 153ZM647.558 115.48C647.558 120.12 648.758 123.693 651.158 126.2C653.611 128.707 656.544 129.96 659.958 129.96C663.424 129.96 666.304 128.627 668.598 125.96C670.944 123.24 672.118 119.693 672.118 115.32C672.118 110.893 670.944 107.347 668.598 104.68C666.304 102.013 663.424 100.68 659.958 100.68C656.491 100.68 653.558 101.987 651.158 104.6C648.758 107.213 647.558 110.84 647.558 115.48ZM724.393 135H717.433C715.14 135 713.993 133.88 713.993 131.64V127.56H713.833C709.94 132.947 704.74 135.64 698.233 135.64C694.393 135.64 691.247 134.653 688.793 132.68C686.34 130.653 685.113 127.933 685.113 124.52C685.113 120.147 687.007 116.947 690.793 114.92C694.633 112.84 699.887 111.8 706.553 111.8H713.273V110.84C713.273 104.173 709.807 100.84 702.873 100.84C699.62 100.84 697.273 101.16 695.833 101.8C694.393 102.387 693.353 102.867 692.713 103.24C692.127 103.613 691.673 103.907 691.353 104.12C690.553 104.76 689.967 104.813 689.593 104.28L687.353 101.48C686.98 101.053 687.033 100.627 687.513 100.2C688.42 99.0267 690.287 97.88 693.113 96.76C695.94 95.64 699.273 95.08 703.113 95.08C714.313 95.08 719.913 100.413 719.913 111.08V129.64H724.393C725.033 129.64 725.353 129.96 725.353 130.6V134.04C725.353 134.68 725.033 135 724.393 135ZM713.273 116.6H706.953C703.86 116.6 701.3 116.76 699.273 117.08C697.247 117.4 695.513 118.093 694.073 119.16C692.687 120.227 691.993 121.693 691.993 123.56C691.993 125.427 692.74 126.973 694.233 128.2C695.78 129.373 697.78 129.96 700.233 129.96C705.407 129.96 709.753 127.667 713.273 123.08V116.6ZM748.483 135H733.203C732.51 135 732.163 134.68 732.163 134.04V130.6C732.163 129.96 732.51 129.64 733.203 129.64H737.603V101H733.203C732.51 101 732.163 100.68 732.163 100.04V96.6C732.163 95.96 732.51 95.64 733.203 95.64H742.563C743.257 95.64 743.603 95.96 743.603 96.6V106.6H743.843C744.003 105.747 744.563 104.573 745.523 103.08C746.483 101.587 747.523 100.36 748.643 99.4C749.817 98.3867 751.47 97.48 753.603 96.68C755.79 95.88 758.243 95.48 760.963 95.48C761.657 95.48 762.003 95.8267 762.003 96.52V100.76C762.003 101.453 761.657 101.8 760.963 101.8H759.283C754.697 101.8 751.043 103.267 748.323 106.2C745.603 109.133 744.243 112.467 744.243 116.2V129.64H748.483C749.177 129.64 749.523 129.96 749.523 130.6V134.04C749.523 134.68 749.177 135 748.483 135ZM809.195 135H801.595C799.302 135 798.155 133.88 798.155 131.64V110.6C798.155 107.507 797.409 105.107 795.915 103.4C794.422 101.693 792.235 100.84 789.355 100.84C785.249 100.84 782.049 102.52 779.755 105.88C779.489 106.2 779.142 106.787 778.715 107.64V129.64H782.955C783.649 129.64 783.995 129.96 783.995 130.6V134.04C783.995 134.68 783.649 135 782.955 135H767.675C766.982 135 766.635 134.68 766.635 134.04V130.6C766.635 129.96 766.982 129.64 767.675 129.64H772.075V101H767.675C766.982 101 766.635 100.68 766.635 100.04V96.6C766.635 95.96 766.982 95.64 767.675 95.64H777.035C777.729 95.64 778.075 95.96 778.075 96.6L777.915 102.04H778.155C780.929 97.4 785.222 95.08 791.035 95.08C795.302 95.08 798.635 96.3333 801.035 98.84C803.435 101.347 804.662 104.733 804.715 109V129.64H809.195C809.889 129.64 810.235 129.96 810.235 130.6V134.04C810.235 134.68 809.889 135 809.195 135ZM855.622 135H848.662C846.368 135 845.222 133.88 845.222 131.64V127.56H845.062C841.168 132.947 835.968 135.64 829.462 135.64C825.622 135.64 822.475 134.653 820.022 132.68C817.568 130.653 816.342 127.933 816.342 124.52C816.342 120.147 818.235 116.947 822.022 114.92C825.862 112.84 831.115 111.8 837.782 111.8H844.502V110.84C844.502 104.173 841.035 100.84 834.102 100.84C830.848 100.84 828.502 101.16 827.062 101.8C825.622 102.387 824.582 102.867 823.942 103.24C823.355 103.613 822.902 103.907 822.582 104.12C821.782 104.76 821.195 104.813 820.822 104.28L818.582 101.48C818.208 101.053 818.262 100.627 818.742 100.2C819.648 99.0267 821.515 97.88 824.342 96.76C827.168 95.64 830.502 95.08 834.342 95.08C845.542 95.08 851.142 100.413 851.142 111.08V129.64H855.622C856.262 129.64 856.582 129.96 856.582 130.6V134.04C856.582 134.68 856.262 135 855.622 135ZM844.502 116.6H838.182C835.088 116.6 832.528 116.76 830.502 117.08C828.475 117.4 826.742 118.093 825.302 119.16C823.915 120.227 823.222 121.693 823.222 123.56C823.222 125.427 823.968 126.973 825.462 128.2C827.008 129.373 829.008 129.96 831.462 129.96C836.635 129.96 840.982 127.667 844.502 123.08V116.6ZM870.188 123.16H865.388C864.748 123.16 864.428 122.84 864.428 122.2V75.16C864.428 74.52 864.748 74.2 865.388 74.2H870.188C870.828 74.2 871.148 74.52 871.148 75.16V122.2C871.148 122.84 870.828 123.16 870.188 123.16ZM870.828 131.72C871.628 132.52 872.028 133.507 872.028 134.68C872.028 135.853 871.628 136.84 870.828 137.64C870.028 138.493 869.014 138.92 867.788 138.92C866.614 138.92 865.601 138.493 864.748 137.64C863.948 136.84 863.548 135.853 863.548 134.68C863.548 133.507 863.948 132.52 864.748 131.72C865.601 130.867 866.614 130.44 867.788 130.44C869.014 130.44 870.028 130.867 870.828 131.72Z" fill="black"/>
</g>
<defs>
<linearGradient id="paint0_linear_0_1" x1="567" y1="0" x2="623.5" y2="355.5" gradientUnits="userSpaceOnUse">
<stop stop-color="#F3B5D7"/>
<stop offset="0.229167" stop-color="#EEC1F1"/>
<stop offset="0.708333" stop-color="#D2C8EB"/>
</linearGradient>
</defs>
</svg>
